<svg width="26" height="26" viewBox="0 0 26 26" fill="none" xmlns="http://www.w3.org/2000/svg">
<path d="M19.2498 11.9583H6.74984V6.74992H19.2498M17.6873 18.2083C17.2729 18.2083 16.8755 18.0436 16.5825 17.7506C16.2895 17.4576 16.1248 17.0602 16.1248 16.6458C16.1248 16.2314 16.2895 15.8339 16.5825 15.5409C16.8755 15.2479 17.2729 15.0833 17.6873 15.0833C18.1017 15.0833 18.4992 15.2479 18.7922 15.5409C19.0852 15.8339 19.2498 16.2314 19.2498 16.6458C19.2498 17.0602 19.0852 17.4576 18.7922 17.7506C18.4992 18.0436 18.1017 18.2083 17.6873 18.2083ZM8.31234 18.2083C7.89794 18.2083 7.50051 18.0436 7.20748 17.7506C6.91446 17.4576 6.74984 17.0602 6.74984 16.6458C6.74984 16.2314 6.91446 15.8339 7.20748 15.5409C7.50051 15.2479 7.89794 15.0833 8.31234 15.0833C8.72674 15.0833 9.12417 15.2479 9.41719 15.5409C9.71022 15.8339 9.87484 16.2314 9.87484 16.6458C9.87484 17.0602 9.71022 17.4576 9.41719 17.7506C9.12417 18.0436 8.72674 18.2083 8.31234 18.2083ZM4.6665 17.1666C4.6665 18.0833 5.07275 18.9062 5.70817 19.4791V21.3333C5.70817 21.6095 5.81792 21.8745 6.01327 22.0698C6.20862 22.2652 6.47357 22.3749 6.74984 22.3749H7.7915C8.06777 22.3749 8.33272 22.2652 8.52807 22.0698C8.72342 21.8745 8.83317 21.6095 8.83317 21.3333V20.2916H17.1665V21.3333C17.1665 21.6095 17.2763 21.8745 17.4716 22.0698C17.667 22.2652 17.9319 22.3749 18.2082 22.3749H19.2498C19.5261 22.3749 19.7911 22.2652 19.9864 22.0698C20.1818 21.8745 20.2915 21.6095 20.2915 21.3333V19.4791C20.9269 18.9062 21.3332 18.0833 21.3332 17.1666V6.74992C21.3332 3.10409 17.604 2.58325 12.9998 2.58325C8.39567 2.58325 4.6665 3.10409 4.6665 6.74992V17.1666Z" fill="#1D1D1D"/>
</svg>
