<svg width="18" height="18" viewBox="0 0 18 18" fill="none" xmlns="http://www.w3.org/2000/svg">
<path d="M2.25 3C2.25 2.80109 2.32902 2.61032 2.46967 2.46967C2.61032 2.32902 2.80109 2.25 3 2.25H4.5C4.69891 2.25 4.88968 2.32902 5.03033 2.46967C5.17098 2.61032 5.25 2.80109 5.25 3V6C5.25 6.19891 5.17098 6.38968 5.03033 6.53033C4.88968 6.67098 4.69891 6.75 4.5 6.75H3C2.80109 6.75 2.61032 6.67098 2.46967 6.53033C2.32902 6.38968 2.25 6.19891 2.25 6V3ZM12 12.75C12 13.1478 12.158 13.5294 12.4393 13.8107C12.7206 14.092 13.1022 14.25 13.5 14.25C13.8978 14.25 14.2794 14.092 14.5607 13.8107C14.842 13.5294 15 13.1478 15 12.75C15 12.3522 14.842 11.9706 14.5607 11.6893C14.2794 11.408 13.8978 11.25 13.5 11.25C13.1022 11.25 12.7206 11.408 12.4393 11.6893C12.158 11.9706 12 12.3522 12 12.75Z" stroke="white" stroke-width="1.5" stroke-linecap="round" stroke-linejoin="round"/>
<path d="M7.5 3.75H12.75C14.8207 3.75 16.5 6.1005 16.5 9V12.75H15M12 12.75H6" stroke="white" stroke-width="1.5" stroke-linecap="round" stroke-linejoin="round"/>
<path d="M12 3.75L13.125 9H16.5M7.125 7.5H12.75M9 3.75V7.5M3.75 6.75V15" stroke="white" stroke-width="1.5" stroke-linecap="round" stroke-linejoin="round"/>
</svg>
