<svg width="26" height="26" viewBox="0 0 26 26" fill="none" xmlns="http://www.w3.org/2000/svg">
<path d="M21.125 21.75C21.2908 21.75 21.4497 21.6842 21.5669 21.5669C21.6842 21.4497 21.75 21.2908 21.75 21.125C21.75 20.9592 21.6842 20.8003 21.5669 20.6831C21.4497 20.5658 21.2908 20.5 21.125 20.5H20.5C20.1685 20.5 19.8505 20.3683 19.6161 20.1339C19.3817 19.8995 19.25 19.5815 19.25 19.25V6.75C19.25 6.41848 19.3817 6.10054 19.6161 5.86612C19.8505 5.6317 20.1685 5.5 20.5 5.5H21.125C21.2908 5.5 21.4497 5.43415 21.5669 5.31694C21.6842 5.19973 21.75 5.04076 21.75 4.875C21.75 4.70924 21.6842 4.55027 21.5669 4.43306C21.4497 4.31585 21.2908 4.25 21.125 4.25H20.5C19.837 4.25 19.2011 4.51339 18.7322 4.98223C18.2634 5.45107 18 6.08696 18 6.75V19.25C18 19.913 18.2634 20.5489 18.7322 21.0178C19.2011 21.4866 19.837 21.75 20.5 21.75H21.125ZM9.25 6.75C9.25 6.08696 9.51339 5.45107 9.98223 4.98223C10.4511 4.51339 11.087 4.25 11.75 4.25H14.25C14.913 4.25 15.5489 4.51339 16.0178 4.98223C16.4866 5.45107 16.75 6.08696 16.75 6.75V19.25C16.75 19.913 16.4866 20.5489 16.0178 21.0178C15.5489 21.4866 14.913 21.75 14.25 21.75H11.75C11.087 21.75 10.4511 21.4866 9.98223 21.0178C9.51339 20.5489 9.25 19.913 9.25 19.25V6.75ZM15.5 19.25V6.75C15.5 6.41848 15.3683 6.10054 15.1339 5.86612C14.8995 5.6317 14.5815 5.5 14.25 5.5H11.75C11.4185 5.5 11.1005 5.6317 10.8661 5.86612C10.6317 6.10054 10.5 6.41848 10.5 6.75V19.25C10.5 19.5815 10.6317 19.8995 10.8661 20.1339C11.1005 20.3683 11.4185 20.5 11.75 20.5H14.25C14.5815 20.5 14.8995 20.3683 15.1339 20.1339C15.3683 19.8995 15.5 19.5815 15.5 19.25ZM5.5 21.75C6.16304 21.75 6.79893 21.4866 7.26777 21.0178C7.73661 20.5489 8 19.913 8 19.25V6.75C8 6.08696 7.73661 5.45107 7.26777 4.98223C6.79893 4.51339 6.16304 4.25 5.5 4.25H4.875C4.70924 4.25 4.55027 4.31585 4.43306 4.43306C4.31585 4.55027 4.25 4.70924 4.25 4.875C4.25 5.04076 4.31585 5.19973 4.43306 5.31694C4.55027 5.43415 4.70924 5.5 4.875 5.5H5.5C5.83152 5.5 6.14946 5.6317 6.38388 5.86612C6.6183 6.10054 6.75 6.41848 6.75 6.75V19.25C6.75 19.2933 6.74792 19.3358 6.74375 19.3775C6.71218 19.6854 6.56752 19.9706 6.33776 20.178C6.10801 20.3853 5.80949 20.5001 5.5 20.5H4.875C4.70924 20.5 4.55027 20.5658 4.43306 20.6831C4.31585 20.8003 4.25 20.9592 4.25 21.125C4.25 21.2908 4.31585 21.4497 4.43306 21.5669C4.55027 21.6842 4.70924 21.75 4.875 21.75H5.5Z" fill="#F8F7F7"/>
</svg>
