<svg width="12" height="15" viewBox="0 0 12 15" fill="none" xmlns="http://www.w3.org/2000/svg">
<path d="M10.5 7.25H1.5V3.5H10.5M9.375 11.75C9.07663 11.75 8.79048 11.6315 8.5795 11.4205C8.36853 11.2095 8.25 10.9234 8.25 10.625C8.25 10.3266 8.36853 10.0405 8.5795 9.82951C8.79048 9.61853 9.07663 9.5 9.375 9.5C9.67337 9.5 9.95952 9.61853 10.1705 9.82951C10.3815 10.0405 10.5 10.3266 10.5 10.625C10.5 10.9234 10.3815 11.2095 10.1705 11.4205C9.95952 11.6315 9.67337 11.75 9.375 11.75ZM2.625 11.75C2.32663 11.75 2.04048 11.6315 1.8295 11.4205C1.61853 11.2095 1.5 10.9234 1.5 10.625C1.5 10.3266 1.61853 10.0405 1.8295 9.82951C2.04048 9.61853 2.32663 9.5 2.625 9.5C2.92337 9.5 3.20952 9.61853 3.4205 9.82951C3.63147 10.0405 3.75 10.3266 3.75 10.625C3.75 10.9234 3.63147 11.2095 3.4205 11.4205C3.20952 11.6315 2.92337 11.75 2.625 11.75ZM0 11C0 11.66 0.2925 12.2525 0.75 12.665V14C0.75 14.1989 0.829018 14.3897 0.96967 14.5303C1.11032 14.671 1.30109 14.75 1.5 14.75H2.25C2.44891 14.75 2.63968 14.671 2.78033 14.5303C2.92098 14.3897 3 14.1989 3 14V13.25H9V14C9 14.1989 9.07902 14.3897 9.21967 14.5303C9.36032 14.671 9.55109 14.75 9.75 14.75H10.5C10.6989 14.75 10.8897 14.671 11.0303 14.5303C11.171 14.3897 11.25 14.1989 11.25 14V12.665C11.7075 12.2525 12 11.66 12 11V3.5C12 0.875 9.315 0.5 6 0.5C2.685 0.5 0 0.875 0 3.5V11Z" fill="#EBEBEB"/>
</svg>
