<svg width="10" height="16" viewBox="0 0 10 16" fill="none" xmlns="http://www.w3.org/2000/svg">
<path d="M1.25 14.75L3.5 11.75M8 14.75L6.5 11.75L4.25 9.5L5 5M5 2C5 2.19891 5.07902 2.38968 5.21967 2.53033C5.36032 2.67098 5.55109 2.75 5.75 2.75C5.94891 2.75 6.13968 2.67098 6.28033 2.53033C6.42098 2.38968 6.5 2.19891 6.5 2C6.5 1.80109 6.42098 1.61032 6.28033 1.46967C6.13968 1.32902 5.94891 1.25 5.75 1.25C5.55109 1.25 5.36032 1.32902 5.21967 1.46967C5.07902 1.61032 5 1.80109 5 2Z" stroke="white" stroke-linecap="round" stroke-linejoin="round"/>
<path d="M0.5 8L2 5.75L5 5L7.25 7.25L9.5 8" stroke="white" stroke-linecap="round" stroke-linejoin="round"/>
</svg>
